<svg xmlns="http://www.w3.org/2000/svg" viewBox="0 0 55.8 63"><title>Untitled-1</title><g fill="currentColor"><path d="M37.4 6.9h-6.3v19.2h6.3V6.9zM36 24.6h-3.4V8.3H36v16.3zm-20.4 8.6h14.2v1.4H15.6zm0 7.5h14.2v1.4H15.6zm0 7.7h14.2v1.5H15.6z"/><path d="M49.2 56.9H6.1V1.5H42v7.4h7.3v18h1.3V7.8L42.9 0H4.7v4.7H0V63h45.5v-4.7h5.2v-5.8h-1.5v4.4zM43.3 2.4l4.8 4.9h-4.8V2.4zm.7 59.1H1.4V6.1h3.3v52.1H44v3.3z"/><path d="M44.5 27.4c-.2 0-.4.1-.6.2-.2.1-.2.3-.2.5v10.7c0 .4.3.7.7.6h10.8c.4 0 .7-.3.6-.7v-.2c-.5-5.8-5.3-10.6-11.3-11.1zm.7 10.8V29c4.8.7 8.5 4.4 9.2 9.2h-9.2z"/><path d="M42.1 28.9c.4 0 .6-.4.6-.7-.1-.4-.4-.7-.8-.6-3.2.5-6.1 2.2-8.1 4.8-2 2.6-2.8 6-2.2 9.2.8 5.3 4.9 9.5 10.1 10.3.6.1 1.3.1 1.9.1 2.1 0 4.1-.5 5.9-1.5.3-.2.5-.6.3-.9v-.1c-.1-.3-.5-.5-.9-.4 0 0-.1 0-.1.1-2.1 1.2-4.5 1.6-6.8 1.2-5.9-.9-10-6.5-9.1-12.4.7-4.7 4.5-8.4 9.2-9.1zM14.4 17.3H8.1V26h6.3v-8.7zM13 24.6H9.6v-5.8H13v5.8zm-2 14.2c-.1 0-.1 0 0 0-1.6 0-2.8 1.2-2.8 2.7s1.2 2.7 2.7 2.7 2.7-1.2 2.7-2.7c0-1.5-1.2-2.7-2.6-2.7zm-.1 3.9c-.7 0-1.3-.6-1.3-1.3 0-.7.6-1.3 1.3-1.3.7 0 1.3.6 1.3 1.3-.1.8-.6 1.3-1.3 1.3zm0-11.6c-1.5 0-2.7 1.2-2.7 2.7s1.2 2.7 2.7 2.7 2.7-1.2 2.7-2.7c0-1.5-1.3-2.7-2.7-2.7zm0 4c-.7 0-1.3-.6-1.3-1.3 0-.7.6-1.3 1.3-1.3.7 0 1.3.6 1.3 1.3-.1.7-.6 1.3-1.3 1.3zm4.9-22.2v13.2h6.3V12.9h-6.3zm4.8 11.7h-3.4V14.3h3.4v10.3z"/><path d="M55 40.7H44.4c-.3 0-.6.2-.7.5-.1.3 0 .6.2.8l6.8 6.8c.3.3.7.3 1 0 2.2-1.9 3.6-4.5 4-7.4 0-.2 0-.4-.2-.6-.1 0-.3-.1-.5-.1zm-3.7 6.7l-5.1-5.2h8c-.5 1.9-1.5 3.7-2.9 5.2zM29.8 10.6h-6.3v15.5h6.3V10.6zm-1.5 14h-3.4V12h3.4v12.6zM8.2 49.1c0 1.5 1.2 2.7 2.7 2.7s2.7-1.2 2.7-2.7c0-1.5-1.1-2.7-2.6-2.7h-.1c-1.5 0-2.7 1.2-2.7 2.7zm2.7-1.3c.7 0 1.2.5 1.3 1.2 0 .7-.5 1.3-1.1 1.3H11c-.7 0-1.3-.6-1.3-1.3s.5-1.2 1.2-1.2z"/></g></svg>