<svg xmlns="http://www.w3.org/2000/svg" viewBox="0 0 602.4 522.7"><path d="M534.8 263.2V52.8H365.2L355.9 0H179.8l-9.3 52.8H0v359.6h283.6v74.1c0 20.4 31.5 36.1 74.1 36.1 18.5 0 37.1-3.7 50.1-9.3 10.2 5.6 22.2 9.3 35.2 9.3 12 0 23.2-2.8 32.4-8.3 13.9 4.6 30.6 8.3 49.1 8.3 38 0 77.8-13 77.8-36.1V298.4c.1-21.3-33.2-33.3-67.5-35.2zM190.9 13h152.9l7.4 38.9H184.4l6.5-38.9zm397.6 285.4c0 9.3-25 22.2-63.9 22.2s-64-13-64-22.2c0-9.3 25-22.2 64-22.2 38.9 0 63.9 13 63.9 22.2zM520.9 66.7v87.1c-4.6 45.4-103.8 83.4-227.1 88.1v-25H241v25c-124.2-4.6-223.4-43.6-227.1-89V65.8h507v.9zM280.8 230.8v44.5l-13 8.3-13-8.3v-44.5h26zM13.9 398.5V185.4c32.4 38.9 118.6 66.7 227.1 70.4v26.9l26.9 16.7 26.9-16.7v-26.9c108.4-3.7 194.6-32.4 227.1-70.4v77.9c-36.1.9-74.1 13-74.1 36.1v79.7h-4.6c-3.7 0-8.3 0-12 .9v-35.2c0-20.4-31.5-36.1-74.1-36.1-42.6 0-74.1 15.8-74.1 36.1v54.7H13.9v-1zm367.9 13c-7.4 1.8-15.7 1.8-25 1.8-37.1 0-60.2-13-60.2-22.2v-25c13 9.3 34.3 14.8 60.2 14.8 25 0 47.3-5.6 60.2-14.8v16.7c-14.8 5.5-26.8 15.7-35.2 28.7zm-84.3-67.7c0-9.3 23.2-22.2 60.2-22.2 37.1 0 60.2 13 60.2 22.2S394.7 366 357.7 366c-37.9.1-60.2-12.9-60.2-22.2zm0 68.6c13 9.3 34.3 14.8 60.2 14.8 5.6 0 12 0 17.6-.9-2.8 7.4-4.6 15.8-4.6 24.1 0 3.7 0 6.5.9 10.2-4.6 0-9.3.9-13.9.9-37.1 0-60.2-13-60.2-22.2v-26.9zm59.3 97.3c-37.1 0-60.2-13-60.2-22.2v-26.9c13 9.3 34.3 14.8 60.2 14.8 5.6 0 11.1 0 16.7-.9 3.7 12 11.1 22.2 19.5 29.7-9.3 3.7-22.3 5.5-36.2 5.5zm26.9-59.3c0-32.4 26.9-59.3 59.3-59.3s59.3 26.9 59.3 59.3-26.9 59.3-59.3 59.3-59.3-26.8-59.3-59.3zm140.9 59.3c-12 0-24.1-1.8-34.3-3.7 8.3-7.4 14.8-16.7 19.5-26.9 4.6 0 10.2.9 14.8.9 24.1 0 49.1-5.6 63.9-14.8v23.2c0 7.5-25 21.3-63.9 21.3zm0-44.4h-11.1c.9-4.6 1.8-9.3 1.8-14.8 0-6.5-.9-13.9-2.8-19.5h12c24.1 0 49.1-5.6 63.9-14.8V443c.1 9.3-24.9 22.3-63.8 22.3zm0-48.2c-6.5 0-12 0-17.6-.9-9.3-17.6-26-30.6-46.3-36.1v-12c14.8 10.2 39.9 14.8 64 14.8s49.1-5.6 63.9-14.8V395c-.1 9.1-25.1 22.1-64 22.1zm0-48.2c-38.9 0-64-13-64-22.2v-26.9c14.8 10.2 39.9 14.8 64 14.8s49.1-5.6 63.9-14.8v26.9c0 9.2-25 22.2-63.9 22.2z"/></svg>