<svg viewBox="0 0 65 65" xmlns="http://www.w3.org/2000/svg"><path d="M14.1 45.1h1.5v1.5h-1.5zM17.6 45.1h1.5v1.5h-1.5zM7.2 45.1h1.5v1.5H7.2zM3.7 45.1h1.5v1.5H3.7zM10.7 45.1h1.5v1.5h-1.5zM28 45.1h1.5v1.5H28zM31.5 45.1H33v1.5h-1.5zM21.1 45.1h1.5v1.5h-1.5zM24.6 45.1h1.5v1.5h-1.5zM38.5 45.1H40v1.5h-1.5zM35 45.1h1.5v1.5H35zM5.3 37.9h11.5v-7.4H5.3v7.4zM6.8 32h8.5v4.4H6.8V32z"/><path d="M62.3 12.3H23.5c-1.5 0-2.7 1.2-2.7 2.7v10.7h-18c-1.5 0-2.8 1.2-2.8 2.8V50c0 1.5 1.2 2.8 2.8 2.8h38.7c1.5 0 2.8-1.2 2.8-2.8V39.3h18c1.5 0 2.7-1.2 2.7-2.7V15c0-1.5-1.2-2.7-2.7-2.7zm-38.8 1.5h38.8c.7 0 1.2.6 1.2 1.2v17.2H22.2V15c0-.7.6-1.2 1.3-1.2zm19.3 36.1c0 .7-.6 1.3-1.3 1.3H2.8c-.7 0-1.3-.6-1.3-1.3V28.4c0-.7.6-1.3 1.3-1.3h18v9.4c0 1.5 1.2 2.7 2.7 2.7h19.3v10.7zm19.5-12.1H23.5c-.7 0-1.2-.6-1.2-1.2v-2.9h41.3v2.9c-.1.7-.6 1.2-1.3 1.2z"/><path d="M59 17.9h1.5v1.5H59zM55.1 17.9h1.5v1.5h-1.5zM51.1 17.9h1.5v1.5h-1.5zM40.7 21.7h19.9v1.5H40.7z"/></svg>