<svg viewBox="0 0 65 65" xmlns="http://www.w3.org/2000/svg"><path d="M25.417 38.506L38.781 25.14l1.06 1.061-13.363 13.364zM36.8 33.5c-1.8 0-3.3 1.5-3.3 3.3 0 1.8 1.5 3.3 3.3 3.3 1.8 0 3.3-1.5 3.3-3.3 0-1.8-1.5-3.3-3.3-3.3zm0 5.1c-1 0-1.8-.8-1.8-1.8s.8-1.8 1.8-1.8 1.8.8 1.8 1.8-.8 1.8-1.8 1.8zM28.2 31.5c1.8 0 3.3-1.5 3.3-3.3 0-1.8-1.5-3.3-3.3-3.3-1.8 0-3.3 1.5-3.3 3.3 0 1.8 1.5 3.3 3.3 3.3zm0-5.1c1 0 1.8.8 1.8 1.8s-.8 1.8-1.8 1.8-1.8-.8-1.8-1.8.8-1.8 1.8-1.8z"/><path d="M58 40.4h.7V24.6H58c-2.3 0-4.2-1.9-4.2-4.2v-.7H11.2v.7c0 2.3-1.9 4.2-4.2 4.2h-.8v15.7H7c2.3 0 4.2 1.9 4.2 4.2v.7h42.6v-.7c0-2.2 1.9-4.1 4.2-4.1zm-5.6 3.4H12.6c-.3-2.6-2.4-4.6-4.9-4.9V26.1c2.6-.3 4.6-2.4 4.9-4.9h39.7c.3 2.6 2.4 4.6 4.9 4.9v12.8c-2.5.4-4.5 2.4-4.8 4.9zM1.5 14.3h8.7v-1.5H0V23h1.5zM1.5 42H0v10.2h10.2v-1.5H1.5zM63.5 50.7h-8.7v1.5H65V42h-1.5zM54.8 12.8v1.5h8.7V23H65V12.8zM25 12.8h1.5v1.5H25zM21.7 12.8h1.5v1.5h-1.5zM15 12.8h1.5v1.5H15zM11.7 12.8h1.5v1.5h-1.5zM28.3 12.8h1.5v1.5h-1.5zM18.3 12.8h1.5v1.5h-1.5zM31.6 12.8h1.5v1.5h-1.5zM48.3 12.8h1.5v1.5h-1.5zM41.6 12.8h1.5v1.5h-1.5zM51.6 12.8h1.5v1.5h-1.5zM44.9 12.8h1.5v1.5h-1.5zM35 12.8h1.5v1.5H35zM38.3 12.8h1.5v1.5h-1.5zM11.7 50.7h1.5v1.5h-1.5zM21.7 50.7h1.5v1.5h-1.5zM38.3 50.7h1.5v1.5h-1.5zM15 50.7h1.5v1.5H15zM35 50.7h1.5v1.5H35zM31.6 50.7h1.5v1.5h-1.5zM41.6 50.7h1.5v1.5h-1.5zM51.6 50.7h1.5v1.5h-1.5zM48.3 50.7h1.5v1.5h-1.5zM44.9 50.7h1.5v1.5h-1.5zM28.3 50.7h1.5v1.5h-1.5zM18.3 50.7h1.5v1.5h-1.5zM25 50.7h1.5v1.5H25zM63.5 25.2H65v1.5h-1.5zM63.5 35.2H65v1.5h-1.5zM63.5 38.5H65V40h-1.5zM63.5 31.9H65v1.5h-1.5zM63.5 28.6H65v1.5h-1.5zM0 28.6h1.5v1.5H0zM0 31.9h1.5v1.5H0zM0 25.2h1.5v1.5H0zM0 38.5h1.5V40H0zM0 35.2h1.5v1.5H0z"/></svg>