<svg viewBox="0 0 65 65" xmlns="http://www.w3.org/2000/svg"><path d="M57.5 13.3v1.4h5.1L50.9 26.4c.1-.9.2-1.9.2-2.8 0-5.2-2.2-10.2-6-13.8-3.4-3.2-7.9-4.9-12.6-4.9-4.7 0-9.2 1.8-12.6 4.9-3.8 3.5-6 8.5-6 13.8 0 5.2 2.2 10.2 6 13.7h-5.8l-5.4 5.4L1 35.1l-1 1 7.5 7.5L0 51.2l1 1 7.5-7.5 11 11L30.2 45l10.5 10.5h17.6l-3.6 3.6 1 1 5.3-5.3-5.3-5.3-1 1 3.6 3.6h-17l-11-11.2-10.8 10.7-10-10 4.9-4.9h26.1l23-23v5.1H65v-7.5h-7.5zM27.8 7c-1.3 1.3-2.5 3.2-3.4 5.4-1.1-.6-2.1-1.2-3.1-2 2-1.6 4.2-2.8 6.5-3.4zm-7.5 4.4c1.1 1 2.4 1.8 3.7 2.4-.8 2.6-1.4 5.7-1.4 9.1h-7.3c.1-4.4 1.9-8.5 5-11.5zm-5.1 12.9h7.3c.1 3.3.6 6.3 1.4 9-1.3.7-2.5 1.5-3.7 2.5-3-3-4.8-7.1-5-11.5zm6.7 13c-.2-.1-.4-.3-.6-.5 1-.8 2-1.5 3.1-2.1.4.9.7 1.8 1.2 2.5h-3.7zm9.8 0h-4.3c-.6-.9-1.1-2-1.6-3.2 1.9-.8 3.8-1.2 5.9-1.3v4.5zm0-5.9c-2.2.1-4.4.5-6.4 1.4-.8-2.5-1.3-5.4-1.3-8.4h7.7v7zm0-8.5H24c.1-3.1.5-6 1.3-8.4 2 .8 4.1 1.3 6.4 1.4v7zm0-8.5c-2-.1-4-.5-5.9-1.3 1.4-3.7 3.5-6.2 5.9-6.6v7.9zm17.9 8.5h-7.3c-.1-3.3-.6-6.4-1.4-9.1 1.3-.7 2.5-1.5 3.7-2.4 3 3 4.8 7.1 5 11.5zm-6.2-12.5c-1 .8-2 1.5-3.1 2-.9-2.3-2-4.1-3.4-5.4 2.4.6 4.6 1.8 6.5 3.4zm-10.3-4c2.4.4 4.5 3 5.9 6.6-1.9.8-3.8 1.2-5.9 1.3V6.4zm0 9.4c2.2-.1 4.3-.6 6.4-1.4.8 2.5 1.3 5.4 1.3 8.4h-7.7v-7zm0 8.5h7.7c-.1 3-.5 5.9-1.3 8.4-2-.8-4.2-1.3-6.4-1.4v-7zm4.3 13h-4.3v-4.5c2 .1 4 .5 5.9 1.3-.4 1.2-1 2.3-1.6 3.2zm2.6 0h-.8c.4-.8.8-1.6 1.2-2.5.5.2.9.5 1.4.8L40 37.3zm9-9l-6.2 6.2c-.6-.4-1.3-.8-1.9-1.2.9-2.7 1.4-5.8 1.4-9h7.4c-.2 1.4-.4 2.7-.7 4z"/></svg>