<svg xmlns="http://www.w3.org/2000/svg" viewBox="0 0 598.7 503.6"><path d="M565.8 440.6v-362H383.9l28.3-26.5c4.6 2.7 10 4.6 15.5 4.6 15.5 0 28.3-12.8 28.3-28.3S442.4.9 426.9.9s-28.3 12.8-28.3 28.3c0 4.6.9 9.1 3.7 13.7l-69.5 64.9v117.9h-27.4v-170c11.9-2.8 21-13.7 21-27.4C326.3 12.8 313.5 0 298 0s-28.3 12.8-28.3 28.3c0 12.8 9.1 23.8 21 27.4v169.1h-27.4V106.9L193.8 42c1.8-3.7 3.7-8.2 3.7-13.7 0-15.5-12.8-28.3-28.3-28.3s-28.3 12.8-28.3 28.3 12.8 28.3 28.3 28.3c5.5 0 11-1.8 15.5-4.6L213 78.6H32v362.9H0v27.4l24.7 34.7h548.4l25.6-35.7v-27.4h-32.9zm-138.9-426c8.2 0 14.6 6.4 14.6 14.6s-6.4 14.6-14.6 14.6-14.6-6.4-14.6-14.6c.8-8.2 7.2-14.6 14.6-14.6zM170.9 43c-8.2 0-14.6-6.4-14.6-14.6s6.4-14.6 14.6-14.6 14.6 6.4 14.6 14.6c-.9 8.2-7.3 14.6-14.6 14.6zm113.4-13.8c0-8.2 6.4-14.6 14.6-14.6s14.6 6.4 14.6 14.6-6.4 14.6-14.6 14.6c-8.2-.8-14.6-7.2-14.6-14.6zm147.1 209.4v153.6h-265V238.6h265zM45.7 92.3h183.7l21.9 20.1v112.4h-25.6v-85.9h-72.2c-2.7-11.9-13.7-21-27.4-21-15.5 0-28.3 12.8-28.3 28.3s12.8 28.3 28.3 28.3c12.8 0 23.8-9.1 27.4-21H212v72.2h-60.3v181h293.4V224.8h-59.4v-72.2h58.5c2.7 11.9 13.7 21 27.4 21 15.5 0 28.3-12.8 28.3-28.3S487.2 117 471.6 117c-12.8 0-23.8 9.1-27.4 21H372v85.9h-25.6V112.4l21.9-20.1H552v349.2H45.7V92.3zm95.1 53.9c0 8.2-6.4 14.6-14.6 14.6s-14.6-6.4-14.6-14.6 6.4-14.6 14.6-14.6 14.6 6.4 14.6 14.6zm316.2 0c0-8.2 6.4-14.6 14.6-14.6s14.6 6.4 14.6 14.6-6.4 14.6-14.6 14.6c-8.2.1-14.6-7.2-14.6-14.6zm128 318.1l-18.3 25.6H32l-18.3-25.6v-9.1H585v9.1z"/><path d="M213 365.6v7.3h172.7v-7.3c0-11 9.1-21 21-21h7.3v-60.3h-7.3c-11 0-21-9.1-21-21V256H213v7.3c0 11-9.1 21-21 21h-7.3v60.3h7.3c10.9.9 21 10 21 21zM199.3 298c13.7-2.7 23.8-13.7 26.5-26.5H372c2.7 13.7 13.7 23.8 26.5 26.5v33.8c-13.7 2.7-23.8 13.7-26.5 26.5H225.8c-2.7-13.7-13.7-23.8-26.5-26.5V298z"/></svg>