<svg viewBox="0 0 65 65" xmlns="http://www.w3.org/2000/svg"><path d="M26.6 32.6l.6-.6c2.9-2.9 4.5-6.9 4.5-11.1 0-4.1-1.7-8.1-4.5-11.1l-.6-.6c-2.9-2.5-6.7-4-10.6-4-.5 0-1 0-1.5.1-.6.1-1.2.2-1.7.3-2.9.5-5.4 1.8-7.6 3.7l-.6.6C1.8 12.9.1 16.8.1 21c0 4.1 1.7 8.1 4.5 11.1l.6.6c2.9 2.7 6.7 4.2 10.7 4.2 1 0 2-.1 2.9-.3 3-.6 5.7-2 7.8-4zm-15-25.3c-.9 1-1.8 2.4-2.4 4.1-.8-.4-1.6-.9-2.3-1.5.1-.1 2.2-1.8 4.7-2.6zm-5.8 3.6c.9.8 1.9 1.4 2.9 1.9-.7 2.2-1.1 4.7-1.2 7.4H1.7c.2-3.5 1.6-6.8 4.1-9.3zM1.7 21.7h5.9c0 2.7.4 5.3 1.1 7.4-1 .5-2 1.2-2.9 1.9-2.5-2.4-3.9-5.8-4.1-9.3zm9.9 12.9c-2.9-.9-4.7-2.5-4.7-2.6.7-.6 1.5-1.1 2.3-1.5.7 1.7 1.5 3.1 2.4 4.1zm3.6.6c-1.8-.4-3.5-2.4-4.6-5.3 1.5-.6 3-.9 4.6-1v6.3zm0-7.8c-1.8.1-3.5.4-5.1 1.1-.6-2-1-4.3-1-6.7h6.2v5.6zm0-7.2H9c.1-2.4.4-4.7 1-6.7 1.6.6 3.3 1 5.1 1.1v5.6zm0-7.1c-1.6-.1-3.2-.4-4.6-1 1.1-2.9 2.8-4.9 4.6-5.3v6.3zm5.1 21.5c.9-1 1.8-2.4 2.4-4.1.8.4 1.6.9 2.3 1.5-2.3 1.9-4.5 2.6-4.7 2.6zm5.8-3.5c-.9-.8-1.9-1.4-2.9-1.9.7-2.2 1.1-4.7 1.2-7.4h5.9c-.3 3.4-1.7 6.8-4.2 9.3zm4.1-10.9h-5.9c-.1-2.7-.5-5.2-1.2-7.4 1-.5 2-1.2 2.9-1.9 2.6 2.5 4 5.8 4.2 9.3zM20.3 7.3c2.8.9 4.7 2.5 4.7 2.6-.7.6-1.5 1.1-2.3 1.5-.7-1.6-1.5-3-2.4-4.1zm-3.6-.5c1.8.4 3.5 2.4 4.6 5.3-1.5.6-3 .9-4.6 1V6.8zm0 7.8c1.8-.1 3.5-.4 5.1-1.1.6 2 1 4.3 1 6.7h-6.2v-5.6zm0 7.1h6.2c-.1 2.4-.4 4.7-1 6.7-1.6-.6-3.3-1-5.1-1.1v-5.6zm0 13.5v-6.3c1.6.1 3.2.4 4.6 1-1.1 2.9-2.8 4.9-4.6 5.3z"/><path d="M58 13.9l-2.6 8.7H33.1v1.5h.9v8.4h-4.7V34H34v8.4h-6.2l-1.1-7.2-1.5.2 1 6.9H20L18.7 38l-1.4.4L19 44h29.9L47 50.3c-.2 0-.4-.1-.6-.1H24.3c-2.6 0-4.8 2.1-4.8 4.8 0 2.6 2.1 4.8 4.8 4.8s4.8-2.1 4.8-4.8c0-1.3-.5-2.4-1.3-3.3h15.1c-.8.9-1.3 2-1.3 3.3 0 2.6 2.1 4.8 4.8 4.8s4.8-2.1 4.8-4.8c0-1.9-1.1-3.5-2.7-4.3l10.7-35.4H65v-1.5h-7zM24.3 58.3c-1.8 0-3.3-1.5-3.3-3.3 0-1.8 1.5-3.3 3.3-3.3 1.8 0 3.3 1.5 3.3 3.3-.1 1.9-1.5 3.3-3.3 3.3zm25.3-3.2c0 1.8-1.5 3.3-3.3 3.3-1.8 0-3.3-1.5-3.3-3.3 0-1.8 1.5-3.3 3.3-3.3 1.8 0 3.3 1.5 3.3 3.3zm-7.9-12.6h-6.2V34H43l-1.3 8.5zm-6.2-10v-8.4h9l-1.3 8.4h-7.7zm13.8 10h-6.1l1.3-8.4h7.4l-2.6 8.4zm3-10h-7.6l1.3-8.4h8.9l-2.6 8.4z"/></svg>