<svg xmlns="http://www.w3.org/2000/svg" viewBox="0 0 63 50"><title>Untitled-1</title><g fill="currentColor"><path d="M52.8 22v-1.5h-1.4V22zm-4.6-1.5h1.5V22h-1.5zm-3.2 0h1.5V22H45z"/><path d="M59.2 15.9v-2.5l-21.1.6v1.9h-5.5V10h-1.5v5.9h-3.9V3.3h-1.5v12.6h-3.9V0h-1.5v16h-3.9V6h-1.5v10h-4.7v1.4h-3v1.3L0 17.9v6.7l7.6-.7v1.3h3v1.4h13.9c-.1.3-.1.7-.1 1v.3c.1 1 .4 1.9.9 2.7L16 44c-.7 1-.4 2.4.6 3.1.4.3.8.4 1.3.4.7 0 1.4-.4 1.8-1l8.1-11.8v13.2c0 1.2 1 2.2 2.2 2.2 1.2 0 2.2-1 2.2-2.2V34.4l8.1 11.8c.4.6 1.1 1 1.8 1 .5 0 .9-.1 1.3-.4 1-.7 1.3-2.1.6-3.1l-9.3-13.4c.6-.9.9-1.9.9-3 0-.3 0-.7-.1-1h2.6v2l21.1.7v-2.5c2.1-.4 3.8-2.6 3.8-5.2.1-2.5-1.5-4.7-3.8-5.4zM7.5 22.4l-6 .6v-3.6l6 .6v2.4zm3 1.4H8.9v-5h1.5v5zm7.8 21.8l-.1.1c-.3.3-.7.3-1 .1v.1c-.4-.3-.4-.7-.2-1.1l9-13.1c.4.4.8.7 1.3.9l-9 13zm12.4 2.3c0 .4-.4.8-.8.8s-.8-.3-.8-.8V33c.3.1.5.1.8.1.3 0 .5-.1.8-.1v14.9zm-.5-16.4c-2.3.2-4.3-1.5-4.5-3.8 0-.1 0-.2-.1-.2 0-1.3.6-2.5 1.6-3.3 1.8-1.4 4.5-1.1 5.9.8.6.7.9 1.6.8 2.5 0 2.1-1.6 3.8-3.7 4zm12.5 13.2c.2.3.1.7-.2 1-.3.3-.8.2-1.1-.1l-9.1-13c.5-.2.9-.5 1.3-.9l9.1 13zM38.1 25H35c-.2-.3-.4-.7-.6-1-1-1.4-2.7-2.2-4.5-2.2-2.2.1-4.2 1.3-5.2 3.2H11.8v-7.6h26.3V25zm19.7 2.5L39.5 27V15.4l18.2-.6v12.7zm1.4-2.5v-7.5c1.5.6 2.5 2.1 2.3 3.8.2 1.6-.8 3.1-2.3 3.7z"/></g></svg>