<svg xmlns="http://www.w3.org/2000/svg" viewBox="0 0 598.7 442"><path d="M240.9 211.6l21-42.1-22.2-16.4c2.3-9.4 2.3-18.7 2.3-26.9l23.4-12.9L250.2 69l-26.9 3.5c-4.7-8.2-11.7-14-18.7-21l7-26.9-42.1-21-16.4 22.2c-9.4-2.3-18.7-2.3-26.9-2.3L113.4 0 69 15.2l3.5 26.9c-8.2 4.7-14 11.7-21 18.7l-26.9-7-21 42.1 22.2 16.4c-1.2 9.4-2.3 17.5-2.3 26.9L0 152l15.2 44.4 26.9-3.5c4.7 7 11.7 14 17.5 21l-5.9 25.7 42.1 21 16.4-22.2c9.4 2.3 18.7 2.3 26.9 2.3l12.9 23.4 44.4-15.2-3.5-26.9c8.2-4.7 14-11.7 21-17.5l27 7.1zm-36.3-23.3c-7 8.2-15.2 16.4-24.5 21l-4.7 3.5 3.5 24.5-17.5 5.9-11.7-21-5.8 1.2c-10.5 1.2-22.2 0-32.7-2.3l-5.8-1.2-14 19.9-16.4-8.2 7-23.4-4.7-3.5c-8.2-7-16.4-15.2-21-24.6l-3.5-4.7-24.5 3.5-5.9-17.5 21-11.7-1.2-7c-1.2-10.5 0-22.2 2.3-32.7l1.2-5.8-20-14.2 8.2-16.4 23.4 7 3.5-4.7c7-8.2 15.2-16.4 24.5-21l4.7-3.5-3.5-24.6L104 21l11.7 21 5.8-1.2c10.5-1.2 22.2 0 32.7 2.3l5.8 1.2 15.2-19.9 16.4 8.2-7 23.4 4.7 3.5c8.2 7 16.4 15.2 22.2 24.6l3.5 4.7 24.6-3.5 5.8 17.5-21 11.7 1.2 5.8c1.2 10.5 0 22.2-2.3 32.7l-1.2 5.9 19.9 15.2-8.2 16.4-23.4-7-5.8 4.8z"/><path d="M133.3 70.2c-7 0-12.9 1.2-19.9 3.5-32.7 10.5-49.1 45.6-38.6 78.3 8.2 24.6 31.6 42.1 58.5 42.1 7 0 12.9-1.2 19.9-3.5 15.2-5.9 28.1-16.4 35.1-31.6 7-15.2 8.2-31.6 3.5-46.8-9.4-24.5-32.8-42-58.5-42zm38.6 81.8c-4.7 10.5-14 18.7-25.7 22.2-4.7 1.2-9.4 2.3-14 2.3-18.7 0-36.3-11.7-42.1-30.4-8.2-23.4 4.7-47.9 28.1-56.1 4.7-1.2 9.4-2.3 14-2.3 18.7 0 36.3 11.7 42.1 30.4 4.6 10.5 3.4 23.4-2.4 33.9zm312.2 38.6c-17.5-17.5-40.9-28.1-67.8-28.1-52.6 0-95.9 43.3-95.9 95.9 0 25.7 9.4 50.3 28.1 67.8 17.5 18.7 42.1 28.1 67.8 28.1 52.6 0 95.9-43.3 95.9-95.9 0-25.7-9.4-50.3-28.1-67.8zm-67.3 147.3h-.5c-21 0-40.9-8.2-56.1-23.4-15.2-15.2-23.4-35.1-23.4-56.1 0-43.1 36-78.1 79-78.3h.5c21 0 40.9 8.2 56.1 23.4 15.2 15.2 23.4 35.1 23.4 56.1 0 43.1-36 78.1-79 78.3z"/><path d="M598.7 290v-60.8l-37.4-7c-3.5-14-9.4-26.9-16.4-38.6l22.2-31.6-42.1-42.1-31.6 21c-11.7-7-24.5-12.9-38.6-16.4l-7-37.4H387l-7 37.4c-14 3.5-26.9 9.4-38.6 16.4l-31.6-22.2-43.3 42.1 21 31.6c-7 11.7-12.9 24.5-16.4 38.6l-37.4 7v60.8l37.4 7c3.5 14 8.2 26.9 16.4 38.6L265.4 366l42.1 43.3 31.6-21c11.7 7 25.7 12.9 38.6 16.4l7 37.4h60.8l7-37.4c14-3.5 26.9-9.4 38.6-16.4l31.6 22.2 43.3-42.1-21-32.7c7-11.7 12.9-25.7 16.4-38.6l37.3-7.1zm-53.8-2.3c-3.5 15.2-9.4 30.4-18.7 43.3l-3.5 4.7 19.9 29.2-21 22.2-29.2-19.9-4.7 2.3c-12.9 8.2-28.1 14-44.4 17.5l-5.9 1.2-7 33.9h-31.6l-5.8-33.9-5.9-1.2c-15.2-3.5-30.4-9.4-43.3-18.7l-4.7-3.5-28.1 21-22.2-22.2 19.9-29.2-3.5-4.7c-8.2-14-15.2-28.1-17.5-43.3l-1.2-5.9-33.9-7V242l33.9-5.8 1.2-5.9c3.5-15.2 9.4-30.4 18.7-43.3l3.5-4.7-19.9-29.1 22.2-22.2 29.2 19.9 4.7-3.5c14-8.2 28.1-15.2 43.3-17.5l5.8-1.2 7-33.9h31.6l5.8 33.9 5.9 1.2c16.4 3.5 30.4 9.4 43.3 18.7l4.7 3.5 29.2-19.9 22.2 22.2-19.9 29.2 3.5 4.7c7 12.9 14 28.1 16.4 43.3l1.2 5.8 33.9 7V276l-33.9 5.8-1.2 5.9z"/></svg>